<mxfile modified="2019-11-05T12:11:23.312Z" host="www.draw.io" agent="Mozilla/5.0 (Windows NT 10.0; Win64; x64) AppleWebKit/537.36 (KHTML, like Gecko) Chrome/77.0.3865.120 Safari/537.36" etag="USaI9fZ6VCasEvfLQ9So" version="12.2.0" type="github" pages="1">
  <diagram id="Ht1M8jgEwFfnCIfOTk4-" name="Page-1">
    <mxGraphModel dx="1408" dy="780" grid="1" gridSize="10" guides="1" tooltips="1" connect="1" arrows="1" fold="1" page="1" pageScale="1" pageWidth="1169" pageHeight="827" math="0" shadow="0">
      <root>
        <mxCell id="0"/>
        <mxCell id="1" parent="0"/>
        <mxCell id="SkhC4YqhcgETkpG4Ag_u-4" value="Stamp Remover" style="points=[[0,0],[0.25,0],[0.5,0],[0.75,0],[1,0],[1,0.25],[1,0.5],[1,0.75],[1,1],[0.75,1],[0.5,1],[0.25,1],[0,1],[0,0.75],[0,0.5],[0,0.25]];outlineConnect=0;gradientColor=none;html=1;whiteSpace=wrap;fontSize=12;fontStyle=0;shape=mxgraph.aws4.group;grIcon=mxgraph.aws4.group_aws_cloud;strokeColor=#232F3E;fillColor=none;verticalAlign=top;align=left;spacingLeft=30;fontColor=#232F3E;dashed=0;" parent="1" vertex="1">
          <mxGeometry x="240" y="40" width="680" height="640" as="geometry"/>
        </mxCell>
        <mxCell id="SkhC4YqhcgETkpG4Ag_u-13" value="Storage" style="fillColor=none;strokeColor=#5A6C86;dashed=1;verticalAlign=top;fontStyle=0;fontColor=#5A6C86;" parent="1" vertex="1">
          <mxGeometry x="280" y="400" width="280" height="240" as="geometry"/>
        </mxCell>
        <mxCell id="SkhC4YqhcgETkpG4Ag_u-8" value="Flask Web Service" style="fillColor=none;strokeColor=#5A6C86;dashed=1;verticalAlign=top;fontStyle=0;fontColor=#5A6C86;" parent="1" vertex="1">
          <mxGeometry x="280" y="80" width="120" height="280" as="geometry"/>
        </mxCell>
        <mxCell id="SkhC4YqhcgETkpG4Ag_u-1" value="Client (WF)" style="points=[[0,0],[0.25,0],[0.5,0],[0.75,0],[1,0],[1,0.25],[1,0.5],[1,0.75],[1,1],[0.75,1],[0.5,1],[0.25,1],[0,1],[0,0.75],[0,0.5],[0,0.25]];outlineConnect=0;gradientColor=none;html=1;whiteSpace=wrap;fontSize=12;fontStyle=0;shape=mxgraph.aws4.group;grIcon=mxgraph.aws4.group_on_premise;strokeColor=#5A6C86;fillColor=none;verticalAlign=top;align=left;spacingLeft=30;fontColor=#5A6C86;dashed=0;" parent="1" vertex="1">
          <mxGeometry x="40" y="40" width="160" height="360" as="geometry"/>
        </mxCell>
        <mxCell id="SkhC4YqhcgETkpG4Ag_u-7" style="edgeStyle=orthogonalEdgeStyle;rounded=0;orthogonalLoop=1;jettySize=auto;html=1;" parent="1" source="SkhC4YqhcgETkpG4Ag_u-9" target="SkhC4YqhcgETkpG4Ag_u-5" edge="1">
          <mxGeometry relative="1" as="geometry"/>
        </mxCell>
        <mxCell id="SkhC4YqhcgETkpG4Ag_u-23" value="Initiating HTTP/S Request" style="text;html=1;resizable=0;points=[];align=center;verticalAlign=middle;labelBackgroundColor=#ffffff;" parent="SkhC4YqhcgETkpG4Ag_u-7" vertex="1" connectable="0">
          <mxGeometry x="-0.1444" y="-1" relative="1" as="geometry">
            <mxPoint x="3" y="-11" as="offset"/>
          </mxGeometry>
        </mxCell>
        <mxCell id="SkhC4YqhcgETkpG4Ag_u-27" style="edgeStyle=orthogonalEdgeStyle;rounded=0;orthogonalLoop=1;jettySize=auto;html=1;" parent="1" source="SkhC4YqhcgETkpG4Ag_u-3" target="SkhC4YqhcgETkpG4Ag_u-10" edge="1">
          <mxGeometry relative="1" as="geometry">
            <Array as="points">
              <mxPoint x="230" y="290"/>
              <mxPoint x="230" y="290"/>
            </Array>
          </mxGeometry>
        </mxCell>
        <mxCell id="SkhC4YqhcgETkpG4Ag_u-28" value="Periodic HTTP/S Requests" style="text;html=1;resizable=0;points=[];align=center;verticalAlign=middle;labelBackgroundColor=#ffffff;" parent="SkhC4YqhcgETkpG4Ag_u-27" vertex="1" connectable="0">
          <mxGeometry y="-23" relative="1" as="geometry">
            <mxPoint y="-33" as="offset"/>
          </mxGeometry>
        </mxCell>
        <mxCell id="SkhC4YqhcgETkpG4Ag_u-29" style="edgeStyle=orthogonalEdgeStyle;rounded=0;orthogonalLoop=1;jettySize=auto;html=1;" parent="1" source="SkhC4YqhcgETkpG4Ag_u-3" target="SkhC4YqhcgETkpG4Ag_u-14" edge="1">
          <mxGeometry relative="1" as="geometry">
            <Array as="points">
              <mxPoint x="130" y="450"/>
            </Array>
          </mxGeometry>
        </mxCell>
        <mxCell id="SkhC4YqhcgETkpG4Ag_u-30" value="Link from the Response" style="text;html=1;resizable=0;points=[];align=center;verticalAlign=middle;labelBackgroundColor=#ffffff;" parent="SkhC4YqhcgETkpG4Ag_u-29" vertex="1" connectable="0">
          <mxGeometry x="-0.1789" y="49" relative="1" as="geometry">
            <mxPoint x="70" y="39" as="offset"/>
          </mxGeometry>
        </mxCell>
        <mxCell id="SkhC4YqhcgETkpG4Ag_u-3" value="REST API" style="outlineConnect=0;fontColor=#232F3E;gradientColor=#945DF2;gradientDirection=north;fillColor=#5A30B5;strokeColor=#ffffff;dashed=0;verticalLabelPosition=bottom;verticalAlign=top;align=center;html=1;fontSize=12;fontStyle=0;aspect=fixed;shape=mxgraph.aws4.resourceIcon;resIcon=mxgraph.aws4.api_gateway;" parent="1" vertex="1">
          <mxGeometry x="100" y="280" width="40" height="40" as="geometry"/>
        </mxCell>
        <mxCell id="SkhC4YqhcgETkpG4Ag_u-21" style="edgeStyle=orthogonalEdgeStyle;rounded=0;orthogonalLoop=1;jettySize=auto;html=1;" parent="1" source="SkhC4YqhcgETkpG4Ag_u-5" target="SkhC4YqhcgETkpG4Ag_u-12" edge="1">
          <mxGeometry relative="1" as="geometry">
            <Array as="points">
              <mxPoint x="490" y="140"/>
            </Array>
          </mxGeometry>
        </mxCell>
        <mxCell id="SkhC4YqhcgETkpG4Ag_u-22" value="Uploaded Document" style="text;html=1;resizable=0;points=[];align=center;verticalAlign=middle;labelBackgroundColor=#ffffff;" parent="SkhC4YqhcgETkpG4Ag_u-21" vertex="1" connectable="0">
          <mxGeometry x="-0.3667" y="-37" relative="1" as="geometry">
            <mxPoint x="-14" y="234" as="offset"/>
          </mxGeometry>
        </mxCell>
        <mxCell id="SkhC4YqhcgETkpG4Ag_u-35" style="edgeStyle=orthogonalEdgeStyle;rounded=0;orthogonalLoop=1;jettySize=auto;html=1;" parent="1" source="SkhC4YqhcgETkpG4Ag_u-5" target="SkhC4YqhcgETkpG4Ag_u-34" edge="1">
          <mxGeometry relative="1" as="geometry">
            <Array as="points">
              <mxPoint x="510" y="130"/>
              <mxPoint x="510" y="130"/>
            </Array>
          </mxGeometry>
        </mxCell>
        <mxCell id="IB7Y-Bl-pYQtumOly40n-5" value="Triggering ML Service" style="text;html=1;resizable=0;points=[];align=center;verticalAlign=middle;labelBackgroundColor=#ffffff;" vertex="1" connectable="0" parent="SkhC4YqhcgETkpG4Ag_u-35">
          <mxGeometry x="0.2786" y="-2" relative="1" as="geometry">
            <mxPoint x="-9" y="-12" as="offset"/>
          </mxGeometry>
        </mxCell>
        <mxCell id="IB7Y-Bl-pYQtumOly40n-3" style="edgeStyle=orthogonalEdgeStyle;rounded=0;orthogonalLoop=1;jettySize=auto;html=1;" edge="1" parent="1" source="SkhC4YqhcgETkpG4Ag_u-5" target="IB7Y-Bl-pYQtumOly40n-1">
          <mxGeometry relative="1" as="geometry">
            <Array as="points">
              <mxPoint x="450" y="150"/>
            </Array>
          </mxGeometry>
        </mxCell>
        <mxCell id="IB7Y-Bl-pYQtumOly40n-4" value="Initial Status" style="text;html=1;resizable=0;points=[];align=center;verticalAlign=middle;labelBackgroundColor=#ffffff;" vertex="1" connectable="0" parent="IB7Y-Bl-pYQtumOly40n-3">
          <mxGeometry x="-0.1818" y="-45" relative="1" as="geometry">
            <mxPoint x="34" y="60" as="offset"/>
          </mxGeometry>
        </mxCell>
        <mxCell id="SkhC4YqhcgETkpG4Ag_u-5" value="Initiation REST API" style="outlineConnect=0;fontColor=#232F3E;gradientColor=#945DF2;gradientDirection=north;fillColor=#5A30B5;strokeColor=#ffffff;dashed=0;verticalLabelPosition=bottom;verticalAlign=top;align=center;html=1;fontSize=12;fontStyle=0;aspect=fixed;shape=mxgraph.aws4.resourceIcon;resIcon=mxgraph.aws4.api_gateway;" parent="1" vertex="1">
          <mxGeometry x="320" y="120" width="40" height="40" as="geometry"/>
        </mxCell>
        <mxCell id="SkhC4YqhcgETkpG4Ag_u-9" value="REST API" style="outlineConnect=0;fontColor=#232F3E;gradientColor=#945DF2;gradientDirection=north;fillColor=#5A30B5;strokeColor=#ffffff;dashed=0;verticalLabelPosition=bottom;verticalAlign=top;align=center;html=1;fontSize=12;fontStyle=0;aspect=fixed;shape=mxgraph.aws4.resourceIcon;resIcon=mxgraph.aws4.api_gateway;" parent="1" vertex="1">
          <mxGeometry x="100" y="120" width="40" height="40" as="geometry"/>
        </mxCell>
        <mxCell id="SkhC4YqhcgETkpG4Ag_u-11" style="edgeStyle=orthogonalEdgeStyle;rounded=0;orthogonalLoop=1;jettySize=auto;html=1;" parent="1" source="SkhC4YqhcgETkpG4Ag_u-10" target="SkhC4YqhcgETkpG4Ag_u-3" edge="1">
          <mxGeometry relative="1" as="geometry">
            <Array as="points">
              <mxPoint x="230" y="310"/>
              <mxPoint x="230" y="310"/>
            </Array>
          </mxGeometry>
        </mxCell>
        <mxCell id="SkhC4YqhcgETkpG4Ag_u-25" value="Status Update Response" style="text;html=1;resizable=0;points=[];align=center;verticalAlign=middle;labelBackgroundColor=#ffffff;" parent="SkhC4YqhcgETkpG4Ag_u-11" vertex="1" connectable="0">
          <mxGeometry x="0.1444" y="2" relative="1" as="geometry">
            <mxPoint x="13" y="-12" as="offset"/>
          </mxGeometry>
        </mxCell>
        <mxCell id="SkhC4YqhcgETkpG4Ag_u-10" value="Status check&lt;br&gt;REST API" style="outlineConnect=0;fontColor=#232F3E;gradientColor=#945DF2;gradientDirection=north;fillColor=#5A30B5;strokeColor=#ffffff;dashed=0;verticalLabelPosition=bottom;verticalAlign=top;align=center;html=1;fontSize=12;fontStyle=0;aspect=fixed;shape=mxgraph.aws4.resourceIcon;resIcon=mxgraph.aws4.api_gateway;" parent="1" vertex="1">
          <mxGeometry x="320" y="280" width="40" height="40" as="geometry"/>
        </mxCell>
        <mxCell id="SkhC4YqhcgETkpG4Ag_u-36" style="edgeStyle=orthogonalEdgeStyle;rounded=0;orthogonalLoop=1;jettySize=auto;html=1;" parent="1" source="SkhC4YqhcgETkpG4Ag_u-12" target="SkhC4YqhcgETkpG4Ag_u-34" edge="1">
          <mxGeometry relative="1" as="geometry">
            <Array as="points">
              <mxPoint x="510" y="150"/>
            </Array>
          </mxGeometry>
        </mxCell>
        <mxCell id="SkhC4YqhcgETkpG4Ag_u-12" value="Original Documents" style="outlineConnect=0;fontColor=#232F3E;gradientColor=none;fillColor=#277116;strokeColor=none;dashed=0;verticalLabelPosition=bottom;verticalAlign=top;align=center;html=1;fontSize=12;fontStyle=0;aspect=fixed;pointerEvents=1;shape=mxgraph.aws4.bucket;" parent="1" vertex="1">
          <mxGeometry x="480" y="440" width="39" height="40" as="geometry"/>
        </mxCell>
        <mxCell id="SkhC4YqhcgETkpG4Ag_u-31" style="edgeStyle=orthogonalEdgeStyle;rounded=0;orthogonalLoop=1;jettySize=auto;html=1;" parent="1" source="SkhC4YqhcgETkpG4Ag_u-14" target="SkhC4YqhcgETkpG4Ag_u-3" edge="1">
          <mxGeometry relative="1" as="geometry">
            <Array as="points">
              <mxPoint x="110" y="470"/>
            </Array>
          </mxGeometry>
        </mxCell>
        <mxCell id="SkhC4YqhcgETkpG4Ag_u-32" value="Processed Document" style="text;html=1;resizable=0;points=[];align=center;verticalAlign=middle;labelBackgroundColor=#ffffff;" parent="SkhC4YqhcgETkpG4Ag_u-31" vertex="1" connectable="0">
          <mxGeometry x="-0.1911" y="-3" relative="1" as="geometry">
            <mxPoint x="25" y="-7" as="offset"/>
          </mxGeometry>
        </mxCell>
        <mxCell id="SkhC4YqhcgETkpG4Ag_u-14" value="Result" style="outlineConnect=0;fontColor=#232F3E;gradientColor=none;fillColor=#277116;strokeColor=none;dashed=0;verticalLabelPosition=bottom;verticalAlign=top;align=center;html=1;fontSize=12;fontStyle=0;aspect=fixed;pointerEvents=1;shape=mxgraph.aws4.bucket_with_objects;" parent="1" vertex="1">
          <mxGeometry x="321" y="440" width="38" height="40" as="geometry"/>
        </mxCell>
        <mxCell id="SkhC4YqhcgETkpG4Ag_u-17" value="ML Service" style="fillColor=none;strokeColor=#5A6C86;dashed=1;verticalAlign=top;fontStyle=0;fontColor=#5A6C86;" parent="1" vertex="1">
          <mxGeometry x="600" y="80" width="240" height="440" as="geometry"/>
        </mxCell>
        <mxCell id="SkhC4YqhcgETkpG4Ag_u-38" style="edgeStyle=orthogonalEdgeStyle;rounded=0;orthogonalLoop=1;jettySize=auto;html=1;" parent="1" source="SkhC4YqhcgETkpG4Ag_u-34" target="SkhC4YqhcgETkpG4Ag_u-37" edge="1">
          <mxGeometry relative="1" as="geometry">
            <Array as="points">
              <mxPoint x="660" y="180"/>
              <mxPoint x="660" y="180"/>
            </Array>
          </mxGeometry>
        </mxCell>
        <mxCell id="SkhC4YqhcgETkpG4Ag_u-47" value="Stamp regions" style="text;html=1;resizable=0;points=[];align=center;verticalAlign=middle;labelBackgroundColor=#ffffff;" parent="SkhC4YqhcgETkpG4Ag_u-38" vertex="1" connectable="0">
          <mxGeometry x="-0.25" relative="1" as="geometry">
            <mxPoint y="20" as="offset"/>
          </mxGeometry>
        </mxCell>
        <mxCell id="SkhC4YqhcgETkpG4Ag_u-34" value="Stamp Detection" style="outlineConnect=0;fontColor=#232F3E;gradientColor=#4AB29A;gradientDirection=north;fillColor=#116D5B;strokeColor=#ffffff;dashed=0;verticalLabelPosition=bottom;verticalAlign=top;align=center;html=1;fontSize=12;fontStyle=0;aspect=fixed;shape=mxgraph.aws4.resourceIcon;resIcon=mxgraph.aws4.rekognition;" parent="1" vertex="1">
          <mxGeometry x="640" y="120" width="40" height="40" as="geometry"/>
        </mxCell>
        <mxCell id="SkhC4YqhcgETkpG4Ag_u-41" style="edgeStyle=orthogonalEdgeStyle;rounded=0;orthogonalLoop=1;jettySize=auto;html=1;" parent="1" source="SkhC4YqhcgETkpG4Ag_u-37" target="SkhC4YqhcgETkpG4Ag_u-44" edge="1">
          <mxGeometry relative="1" as="geometry">
            <mxPoint x="430" y="300" as="targetPoint"/>
            <Array as="points">
              <mxPoint x="660" y="260"/>
              <mxPoint x="660" y="260"/>
            </Array>
          </mxGeometry>
        </mxCell>
        <mxCell id="SkhC4YqhcgETkpG4Ag_u-42" value="No stamps" style="text;html=1;resizable=0;points=[];align=center;verticalAlign=middle;labelBackgroundColor=#ffffff;" parent="SkhC4YqhcgETkpG4Ag_u-41" vertex="1" connectable="0">
          <mxGeometry x="-0.3357" relative="1" as="geometry">
            <mxPoint x="3" y="10" as="offset"/>
          </mxGeometry>
        </mxCell>
        <mxCell id="SkhC4YqhcgETkpG4Ag_u-48" style="edgeStyle=orthogonalEdgeStyle;rounded=0;orthogonalLoop=1;jettySize=auto;html=1;" parent="1" source="SkhC4YqhcgETkpG4Ag_u-37" target="SkhC4YqhcgETkpG4Ag_u-49" edge="1">
          <mxGeometry relative="1" as="geometry">
            <mxPoint x="1000" y="350" as="targetPoint"/>
            <Array as="points">
              <mxPoint x="720" y="260"/>
              <mxPoint x="720" y="340"/>
            </Array>
          </mxGeometry>
        </mxCell>
        <mxCell id="SkhC4YqhcgETkpG4Ag_u-50" value="1+ stamps" style="text;html=1;resizable=0;points=[];align=center;verticalAlign=middle;labelBackgroundColor=#ffffff;" parent="SkhC4YqhcgETkpG4Ag_u-48" vertex="1" connectable="0">
          <mxGeometry x="-0.1875" y="-1" relative="1" as="geometry">
            <mxPoint x="-9" y="-35" as="offset"/>
          </mxGeometry>
        </mxCell>
        <mxCell id="SkhC4YqhcgETkpG4Ag_u-59" value="Stamp&lt;br&gt;Regions" style="text;html=1;resizable=0;points=[];align=center;verticalAlign=middle;labelBackgroundColor=#ffffff;" parent="SkhC4YqhcgETkpG4Ag_u-48" vertex="1" connectable="0">
          <mxGeometry x="0.6" relative="1" as="geometry">
            <mxPoint x="-8" y="-30" as="offset"/>
          </mxGeometry>
        </mxCell>
        <mxCell id="SkhC4YqhcgETkpG4Ag_u-37" value="Count stamp&lt;br&gt;regions" style="outlineConnect=0;fontColor=#232F3E;gradientColor=none;fillColor=#5A30B5;strokeColor=none;dashed=0;verticalLabelPosition=bottom;verticalAlign=top;align=center;html=1;fontSize=12;fontStyle=0;aspect=fixed;pointerEvents=1;shape=mxgraph.aws4.network_load_balancer;" parent="1" vertex="1">
          <mxGeometry x="640" y="240" width="40" height="40" as="geometry"/>
        </mxCell>
        <mxCell id="SkhC4YqhcgETkpG4Ag_u-46" style="edgeStyle=orthogonalEdgeStyle;rounded=0;orthogonalLoop=1;jettySize=auto;html=1;" parent="1" source="SkhC4YqhcgETkpG4Ag_u-44" target="SkhC4YqhcgETkpG4Ag_u-14" edge="1">
          <mxGeometry relative="1" as="geometry">
            <Array as="points">
              <mxPoint x="580" y="470"/>
              <mxPoint x="580" y="510"/>
              <mxPoint x="380" y="510"/>
              <mxPoint x="380" y="460"/>
            </Array>
          </mxGeometry>
        </mxCell>
        <mxCell id="SkhC4YqhcgETkpG4Ag_u-44" value="Save result&lt;br&gt;Update status" style="outlineConnect=0;fontColor=#232F3E;gradientColor=#4D72F3;gradientDirection=north;fillColor=#3334B9;strokeColor=#ffffff;dashed=0;verticalLabelPosition=bottom;verticalAlign=top;align=center;html=1;fontSize=12;fontStyle=0;aspect=fixed;shape=mxgraph.aws4.resourceIcon;resIcon=mxgraph.aws4.command_line_interface;" parent="1" vertex="1">
          <mxGeometry x="640" y="440" width="40" height="40" as="geometry"/>
        </mxCell>
        <mxCell id="SkhC4YqhcgETkpG4Ag_u-55" style="edgeStyle=orthogonalEdgeStyle;rounded=0;orthogonalLoop=1;jettySize=auto;html=1;" parent="1" source="SkhC4YqhcgETkpG4Ag_u-49" target="SkhC4YqhcgETkpG4Ag_u-53" edge="1">
          <mxGeometry relative="1" as="geometry"/>
        </mxCell>
        <mxCell id="SkhC4YqhcgETkpG4Ag_u-49" value="Deep analysis" style="outlineConnect=0;fontColor=#232F3E;gradientColor=#4AB29A;gradientDirection=north;fillColor=#116D5B;strokeColor=#ffffff;dashed=0;verticalLabelPosition=bottom;verticalAlign=top;align=center;html=1;fontSize=12;fontStyle=0;aspect=fixed;shape=mxgraph.aws4.resourceIcon;resIcon=mxgraph.aws4.deep_learning_amis;" parent="1" vertex="1">
          <mxGeometry x="760" y="320" width="40" height="40" as="geometry"/>
        </mxCell>
        <mxCell id="SkhC4YqhcgETkpG4Ag_u-51" value="Object Detection&lt;br&gt;Model" style="outlineConnect=0;fontColor=#232F3E;gradientColor=none;fillColor=#116D5B;strokeColor=none;dashed=0;verticalLabelPosition=bottom;verticalAlign=top;align=center;html=1;fontSize=12;fontStyle=0;aspect=fixed;pointerEvents=1;shape=mxgraph.aws4.sagemaker_model;" parent="1" vertex="1">
          <mxGeometry x="760" y="120" width="40" height="40" as="geometry"/>
        </mxCell>
        <mxCell id="SkhC4YqhcgETkpG4Ag_u-52" value="" style="edgeStyle=orthogonalEdgeStyle;html=1;endArrow=block;elbow=vertical;startArrow=block;startFill=1;endFill=1;strokeColor=#545B64;rounded=0;" parent="1" source="SkhC4YqhcgETkpG4Ag_u-34" target="SkhC4YqhcgETkpG4Ag_u-51" edge="1">
          <mxGeometry width="100" relative="1" as="geometry">
            <mxPoint x="730" y="160" as="sourcePoint"/>
            <mxPoint x="830" y="160" as="targetPoint"/>
            <Array as="points">
              <mxPoint x="720" y="140"/>
              <mxPoint x="720" y="140"/>
            </Array>
          </mxGeometry>
        </mxCell>
        <mxCell id="SkhC4YqhcgETkpG4Ag_u-54" style="edgeStyle=orthogonalEdgeStyle;rounded=0;orthogonalLoop=1;jettySize=auto;html=1;" parent="1" source="SkhC4YqhcgETkpG4Ag_u-53" target="SkhC4YqhcgETkpG4Ag_u-44" edge="1">
          <mxGeometry relative="1" as="geometry"/>
        </mxCell>
        <mxCell id="SkhC4YqhcgETkpG4Ag_u-53" value="Restore affected&lt;br&gt;pixels" style="outlineConnect=0;fontColor=#232F3E;gradientColor=#4AB29A;gradientDirection=north;fillColor=#116D5B;strokeColor=#ffffff;dashed=0;verticalLabelPosition=bottom;verticalAlign=top;align=center;html=1;fontSize=12;fontStyle=0;aspect=fixed;shape=mxgraph.aws4.resourceIcon;resIcon=mxgraph.aws4.textract;" parent="1" vertex="1">
          <mxGeometry x="760" y="440" width="40" height="40" as="geometry"/>
        </mxCell>
        <mxCell id="SkhC4YqhcgETkpG4Ag_u-56" value="Model" style="outlineConnect=0;fontColor=#232F3E;gradientColor=none;fillColor=#116D5B;strokeColor=none;dashed=0;verticalLabelPosition=bottom;verticalAlign=top;align=center;html=1;fontSize=12;fontStyle=0;aspect=fixed;pointerEvents=1;shape=mxgraph.aws4.sagemaker_model;" parent="1" vertex="1">
          <mxGeometry x="760" y="220" width="40" height="40" as="geometry"/>
        </mxCell>
        <mxCell id="SkhC4YqhcgETkpG4Ag_u-58" value="" style="edgeStyle=orthogonalEdgeStyle;html=1;endArrow=block;elbow=vertical;startArrow=block;startFill=1;endFill=1;strokeColor=#545B64;rounded=0;" parent="1" source="SkhC4YqhcgETkpG4Ag_u-49" target="SkhC4YqhcgETkpG4Ag_u-56" edge="1">
          <mxGeometry width="100" relative="1" as="geometry">
            <mxPoint x="40" y="660" as="sourcePoint"/>
            <mxPoint x="140" y="660" as="targetPoint"/>
          </mxGeometry>
        </mxCell>
        <mxCell id="SkhC4YqhcgETkpG4Ag_u-61" value="Training/Test&lt;br&gt;data" style="outlineConnect=0;fontColor=#232F3E;gradientColor=none;fillColor=#277116;strokeColor=none;dashed=0;verticalLabelPosition=bottom;verticalAlign=top;align=center;html=1;fontSize=12;fontStyle=0;aspect=fixed;pointerEvents=1;shape=mxgraph.aws4.bucket_with_objects;" parent="1" vertex="1">
          <mxGeometry x="401" y="560" width="38" height="40" as="geometry"/>
        </mxCell>
        <mxCell id="SkhC4YqhcgETkpG4Ag_u-62" value="" style="edgeStyle=orthogonalEdgeStyle;html=1;endArrow=block;elbow=vertical;startArrow=block;startFill=1;endFill=1;strokeColor=#545B64;rounded=0;" parent="1" source="SkhC4YqhcgETkpG4Ag_u-61" target="SkhC4YqhcgETkpG4Ag_u-56" edge="1">
          <mxGeometry width="100" relative="1" as="geometry">
            <mxPoint x="620" y="590" as="sourcePoint"/>
            <mxPoint x="720" y="590" as="targetPoint"/>
            <Array as="points">
              <mxPoint x="880" y="580"/>
              <mxPoint x="880" y="240"/>
            </Array>
          </mxGeometry>
        </mxCell>
        <mxCell id="SkhC4YqhcgETkpG4Ag_u-63" value="" style="edgeStyle=orthogonalEdgeStyle;html=1;endArrow=block;elbow=vertical;startArrow=block;startFill=1;endFill=1;strokeColor=#545B64;rounded=0;" parent="1" source="SkhC4YqhcgETkpG4Ag_u-51" target="SkhC4YqhcgETkpG4Ag_u-61" edge="1">
          <mxGeometry width="100" relative="1" as="geometry">
            <mxPoint x="40" y="700" as="sourcePoint"/>
            <mxPoint x="140" y="700" as="targetPoint"/>
            <Array as="points">
              <mxPoint x="880" y="140"/>
              <mxPoint x="880" y="580"/>
            </Array>
          </mxGeometry>
        </mxCell>
        <mxCell id="IB7Y-Bl-pYQtumOly40n-1" value="Status DB" style="outlineConnect=0;fontColor=#232F3E;gradientColor=#4D72F3;gradientDirection=north;fillColor=#3334B9;strokeColor=#ffffff;dashed=0;verticalLabelPosition=bottom;verticalAlign=top;align=center;html=1;fontSize=12;fontStyle=0;aspect=fixed;shape=mxgraph.aws4.resourceIcon;resIcon=mxgraph.aws4.database;" vertex="1" parent="1">
          <mxGeometry x="430" y="280" width="40" height="40" as="geometry"/>
        </mxCell>
        <mxCell id="IB7Y-Bl-pYQtumOly40n-2" style="edgeStyle=orthogonalEdgeStyle;rounded=0;orthogonalLoop=1;jettySize=auto;html=1;" edge="1" parent="1" source="SkhC4YqhcgETkpG4Ag_u-44" target="IB7Y-Bl-pYQtumOly40n-1">
          <mxGeometry relative="1" as="geometry">
            <Array as="points">
              <mxPoint x="580" y="450"/>
              <mxPoint x="580" y="300"/>
            </Array>
            <mxPoint x="640" y="450" as="sourcePoint"/>
            <mxPoint x="360" y="300" as="targetPoint"/>
          </mxGeometry>
        </mxCell>
        <mxCell id="IB7Y-Bl-pYQtumOly40n-8" value="Updated Status" style="text;html=1;resizable=0;points=[];align=center;verticalAlign=middle;labelBackgroundColor=#ffffff;direction=south;" vertex="1" connectable="0" parent="IB7Y-Bl-pYQtumOly40n-2">
          <mxGeometry x="0.4563" relative="1" as="geometry">
            <mxPoint x="-7" y="-10" as="offset"/>
          </mxGeometry>
        </mxCell>
        <mxCell id="IB7Y-Bl-pYQtumOly40n-6" value="" style="edgeStyle=orthogonalEdgeStyle;html=1;endArrow=block;elbow=vertical;startArrow=block;startFill=1;endFill=1;strokeColor=#545B64;rounded=0;" edge="1" parent="1" source="SkhC4YqhcgETkpG4Ag_u-10" target="IB7Y-Bl-pYQtumOly40n-1">
          <mxGeometry width="100" relative="1" as="geometry">
            <mxPoint x="40" y="700" as="sourcePoint"/>
            <mxPoint x="140" y="700" as="targetPoint"/>
          </mxGeometry>
        </mxCell>
        <mxCell id="IB7Y-Bl-pYQtumOly40n-7" value="DB" style="fillColor=none;strokeColor=#5A6C86;dashed=1;verticalAlign=top;fontStyle=0;fontColor=#5A6C86;" vertex="1" parent="1">
          <mxGeometry x="415" y="250" width="65" height="110" as="geometry"/>
        </mxCell>
      </root>
    </mxGraphModel>
  </diagram>
</mxfile>
